<svg xmlns="http://www.w3.org/2000/svg" width="1000" height="510" viewBox="0 0 1000 510" role="img" aria-labelledby="title desc">
<title id="title">VaR marks the tail; ES averages its losses</title><desc id="desc">Calculated standard Normal density, VaR 2.32635 and ES 2.66521. Shaded right tail.</desc>
<rect width="1000" height="510" fill="white"/>
<g font-family="Arial, sans-serif"><text x="40" y="48" font-size="28" fill="#232326" text-anchor="start">VaR marks the tail; ES averages its losses</text><text x="40" y="81" font-size="18" fill="#64646b" text-anchor="start">Normal loss: mean 0, SD 1 · confidence 99%</text><line x1="80" y1="400" x2="920" y2="400" stroke="#dddddf" stroke-width="2" stroke-dasharray=""/><text x="66" y="406" font-size="16" fill="#64646b" text-anchor="end">0.0</text><line x1="80" y1="330.0" x2="920" y2="330.0" stroke="#dddddf" stroke-width="2" stroke-dasharray=""/><text x="66" y="336.0" font-size="16" fill="#64646b" text-anchor="end">0.1</text><line x1="80" y1="260.0" x2="920" y2="260.0" stroke="#dddddf" stroke-width="2" stroke-dasharray=""/><text x="66" y="266.0" font-size="16" fill="#64646b" text-anchor="end">0.2</text><line x1="80" y1="190.0" x2="920" y2="190.0" stroke="#dddddf" stroke-width="2" stroke-dasharray=""/><text x="66" y="196.0" font-size="16" fill="#64646b" text-anchor="end">0.3</text><line x1="80" y1="120.0" x2="920" y2="120.0" stroke="#dddddf" stroke-width="2" stroke-dasharray=""/><text x="66" y="126.0" font-size="16" fill="#64646b" text-anchor="end">0.4</text><text x="80" y="109" font-size="16" fill="#64646b" text-anchor="start">Density</text><polygon points="744.267,400.000 744.267,381.344 746.024,382.058 747.781,382.751 749.539,383.421 751.296,384.070 753.053,384.697 754.811,385.304 756.568,385.891 758.325,386.459 760.083,387.007 761.840,387.536 763.597,388.047 765.355,388.541 767.112,389.017 768.869,389.476 770.627,389.919 772.384,390.346 774.141,390.757 775.899,391.154 777.656,391.536 779.413,391.903 781.171,392.257 782.928,392.597 784.685,392.925 786.443,393.240 788.200,393.542 789.957,393.833 791.715,394.112 793.472,394.381 795.229,394.638 796.987,394.885 798.744,395.123 800.501,395.350 802.259,395.568 804.016,395.777 805.773,395.978 807.531,396.169 809.288,396.353 811.045,396.529 812.803,396.697 814.560,396.858 816.317,397.013 818.075,397.160 819.832,397.301 821.589,397.435 823.347,397.564 825.104,397.686 826.861,397.803 828.619,397.915 830.376,398.022 832.133,398.124 833.891,398.221 835.648,398.313 837.405,398.401 839.163,398.485 840.920,398.565 842.677,398.641 844.435,398.714 846.192,398.782 847.949,398.848 849.707,398.910 851.464,398.970 853.221,399.026 854.979,399.079 856.736,399.130 858.493,399.178 860.251,399.224 862.008,399.267 863.765,399.309 865.523,399.348 867.280,399.385 869.037,399.420 870.795,399.453 872.552,399.484 874.309,399.514 876.067,399.542 877.824,399.569 879.581,399.594 881.339,399.618 883.096,399.641 884.853,399.662 886.611,399.682 888.368,399.701 890.125,399.719 891.883,399.736 893.640,399.752 895.397,399.767 897.155,399.782 898.912,399.795 900.669,399.808 902.427,399.820 904.184,399.831 905.941,399.841 907.699,399.851 909.456,399.861 911.213,399.870 912.971,399.878 914.728,399.886 916.485,399.893 918.243,399.900 920.000,399.906 920.000,400.000" fill="#d8eee9"/><polyline points="80.000,399.906 82.100,399.899 84.200,399.890 86.300,399.881 88.400,399.871 90.500,399.861 92.600,399.850 94.700,399.838 96.800,399.825 98.900,399.811 101.000,399.796 103.100,399.780 105.200,399.762 107.300,399.744 109.400,399.724 111.500,399.703 113.600,399.680 115.700,399.655 117.800,399.629 119.900,399.602 122.000,399.572 124.100,399.540 126.200,399.506 128.300,399.469 130.400,399.431 132.500,399.389 134.600,399.345 136.700,399.298 138.800,399.248 140.900,399.194 143.000,399.137 145.100,399.077 147.200,399.013 149.300,398.944 151.400,398.871 153.500,398.794 155.600,398.712 157.700,398.625 159.800,398.533 161.900,398.435 164.000,398.331 166.100,398.221 168.200,398.105 170.300,397.982 172.400,397.851 174.500,397.713 176.600,397.567 178.700,397.413 180.800,397.251 182.900,397.079 185.000,396.898 187.100,396.707 189.200,396.505 191.300,396.293 193.400,396.069 195.500,395.833 197.600,395.585 199.700,395.324 201.800,395.050 203.900,394.762 206.000,394.459 208.100,394.141 210.200,393.807 212.300,393.457 214.400,393.090 216.500,392.705 218.600,392.302 220.700,391.880 222.800,391.438 224.900,390.976 227.000,390.492 229.100,389.986 231.200,389.458 233.300,388.907 235.400,388.331 237.500,387.730 239.600,387.104 241.700,386.451 243.800,385.770 245.900,385.061 248.000,384.324 250.100,383.556 252.200,382.758 254.300,381.928 256.400,381.066 258.500,380.171 260.600,379.242 262.700,378.278 264.800,377.278 266.900,376.241 269.000,375.168 271.100,374.056 273.200,372.905 275.300,371.715 277.400,370.484 279.500,369.211 281.600,367.897 283.700,366.540 285.800,365.140 287.900,363.695 290.000,362.206 292.100,360.672 294.200,359.091 296.300,357.464 298.400,355.790 300.500,354.069 302.600,352.300 304.700,350.482 306.800,348.615 308.900,346.700 311.000,344.735 313.100,342.721 315.200,340.657 317.300,338.543 319.400,336.379 321.500,334.166 323.600,331.902 325.700,329.590 327.800,327.227 329.900,324.816 332.000,322.355 334.100,319.847 336.200,317.290 338.300,314.686 340.400,312.035 342.500,309.338 344.600,306.595 346.700,303.808 348.800,300.978 350.900,298.105 353.000,295.191 355.100,292.236 357.200,289.243 359.300,286.211 361.400,283.144 363.500,280.042 365.600,276.907 367.700,273.740 369.800,270.544 371.900,267.320 374.000,264.070 376.100,260.796 378.200,257.500 380.300,254.185 382.400,250.852 384.500,247.503 386.600,244.143 388.700,240.771 390.800,237.392 392.900,234.008 395.000,230.620 397.100,227.233 399.200,223.849 401.300,220.470 403.400,217.100 405.500,213.740 407.600,210.395 409.700,207.067 411.800,203.759 413.900,200.475 416.000,197.216 418.100,193.986 420.200,190.789 422.300,187.628 424.400,184.504 426.500,181.422 428.600,178.385 430.700,175.395 432.800,172.456 434.900,169.571 437.000,166.743 439.100,163.974 441.200,161.268 443.300,158.627 445.400,156.055 447.500,153.554 449.600,151.127 451.700,148.777 453.800,146.506 455.900,144.316 458.000,142.211 460.100,140.192 462.200,138.263 464.300,136.424 466.400,134.679 468.500,133.029 470.600,131.476 472.700,130.022 474.800,128.668 476.900,127.417 479.000,126.270 481.100,125.228 483.200,124.292 485.300,123.464 487.400,122.744 489.500,122.133 491.600,121.633 493.700,121.243 495.800,120.964 497.900,120.796 500.000,120.740 502.100,120.796 504.200,120.964 506.300,121.243 508.400,121.633 510.500,122.133 512.600,122.744 514.700,123.464 516.800,124.292 518.900,125.228 521.000,126.270 523.100,127.417 525.200,128.668 527.300,130.022 529.400,131.476 531.500,133.029 533.600,134.679 535.700,136.424 537.800,138.263 539.900,140.192 542.000,142.211 544.100,144.316 546.200,146.506 548.300,148.777 550.400,151.127 552.500,153.554 554.600,156.055 556.700,158.627 558.800,161.268 560.900,163.974 563.000,166.743 565.100,169.571 567.200,172.456 569.300,175.395 571.400,178.385 573.500,181.422 575.600,184.504 577.700,187.628 579.800,190.789 581.900,193.986 584.000,197.216 586.100,200.475 588.200,203.759 590.300,207.067 592.400,210.395 594.500,213.740 596.600,217.100 598.700,220.470 600.800,223.849 602.900,227.233 605.000,230.620 607.100,234.008 609.200,237.392 611.300,240.771 613.400,244.143 615.500,247.503 617.600,250.852 619.700,254.185 621.800,257.500 623.900,260.796 626.000,264.070 628.100,267.320 630.200,270.544 632.300,273.740 634.400,276.907 636.500,280.042 638.600,283.144 640.700,286.211 642.800,289.243 644.900,292.236 647.000,295.191 649.100,298.105 651.200,300.978 653.300,303.808 655.400,306.595 657.500,309.338 659.600,312.035 661.700,314.686 663.800,317.290 665.900,319.847 668.000,322.355 670.100,324.816 672.200,327.227 674.300,329.590 676.400,331.902 678.500,334.166 680.600,336.379 682.700,338.543 684.800,340.657 686.900,342.721 689.000,344.735 691.100,346.700 693.200,348.615 695.300,350.482 697.400,352.300 699.500,354.069 701.600,355.790 703.700,357.464 705.800,359.091 707.900,360.672 710.000,362.206 712.100,363.695 714.200,365.140 716.300,366.540 718.400,367.897 720.500,369.211 722.600,370.484 724.700,371.715 726.800,372.905 728.900,374.056 731.000,375.168 733.100,376.241 735.200,377.278 737.300,378.278 739.400,379.242 741.500,380.171 743.600,381.066 745.700,381.928 747.800,382.758 749.900,383.556 752.000,384.324 754.100,385.061 756.200,385.770 758.300,386.451 760.400,387.104 762.500,387.730 764.600,388.331 766.700,388.907 768.800,389.458 770.900,389.986 773.000,390.492 775.100,390.976 777.200,391.438 779.300,391.880 781.400,392.302 783.500,392.705 785.600,393.090 787.700,393.457 789.800,393.807 791.900,394.141 794.000,394.459 796.100,394.762 798.200,395.050 800.300,395.324 802.400,395.585 804.500,395.833 806.600,396.069 808.700,396.293 810.800,396.505 812.900,396.707 815.000,396.898 817.100,397.079 819.200,397.251 821.300,397.413 823.400,397.567 825.500,397.713 827.600,397.851 829.700,397.982 831.800,398.105 833.900,398.221 836.000,398.331 838.100,398.435 840.200,398.533 842.300,398.625 844.400,398.712 846.500,398.794 848.600,398.871 850.700,398.944 852.800,399.013 854.900,399.077 857.000,399.137 859.100,399.194 861.200,399.248 863.300,399.298 865.400,399.345 867.500,399.389 869.600,399.431 871.700,399.469 873.800,399.506 875.900,399.540 878.000,399.572 880.100,399.602 882.200,399.629 884.300,399.655 886.400,399.680 888.500,399.703 890.600,399.724 892.700,399.744 894.800,399.762 896.900,399.780 899.000,399.796 901.100,399.811 903.200,399.825 905.300,399.838 907.400,399.850 909.500,399.861 911.600,399.871 913.700,399.881 915.800,399.890 917.900,399.899 920.000,399.906" fill="none" stroke="#6200ee" stroke-width="3"/><text x="80" y="431" font-size="16" fill="#64646b" text-anchor="middle">-4</text><text x="185" y="431" font-size="16" fill="#64646b" text-anchor="middle">-3</text><text x="290" y="431" font-size="16" fill="#64646b" text-anchor="middle">-2</text><text x="395" y="431" font-size="16" fill="#64646b" text-anchor="middle">-1</text><text x="500" y="431" font-size="16" fill="#64646b" text-anchor="middle">0</text><text x="605" y="431" font-size="16" fill="#64646b" text-anchor="middle">1</text><text x="710" y="431" font-size="16" fill="#64646b" text-anchor="middle">2</text><text x="815" y="431" font-size="16" fill="#64646b" text-anchor="middle">3</text><text x="920" y="431" font-size="16" fill="#64646b" text-anchor="middle">4</text><line x1="744.2665267742883" y1="170" x2="744.2665267742883" y2="400" stroke="#008577" stroke-width="2" stroke-dasharray="6 5"/><line x1="779.8474931363098" y1="220" x2="779.8474931363098" y2="400" stroke="#6200ee" stroke-width="2" stroke-dasharray="3 4"/><text x="729.2665267742883" y="152" font-size="19" fill="#008577" text-anchor="end">VaR = 2.326</text><text x="795.8474931363098" y="209" font-size="19" fill="#6200ee" text-anchor="start">ES = 2.665</text><text x="920" y="474" font-size="18" fill="#64646b" text-anchor="end">Loss (SD units) →</text><text x="80" y="474" font-size="18" fill="#64646b" text-anchor="start">Tail probability = 1% beyond VaR</text></g></svg>